PathFileType	4	(X/Y/Z)	S1_rest_slow_right.trc
DataRate	CameraRate	NumFrames	NumMarkers	Units	OrigDataRate	OrigDataStartFrame	OrigNumFrames
250.00	250.00	14	18	mm	250.00	9403	25073
Frame#	Time	c7	r_should	l_should	clavicle	r_upa	r_elb_l	r_elb_m	r_low	r_wri_l	r_wri_m	r_met	l_upa	l_elb_l	l_elb_m	l_low	l_wri_l	l_wri_m	l_met
	X1	Y1	Z1	X2	Y2	Z2	X3	Y3	Z3	X4	Y4	Z4	X5	Y5	Z5	X6	Y6	Z6	X7	Y7	Z7	X8	Y8	Z8	X9	Y9	Z9	X10	Y10	Z10	X11	Y11	Z11	X12	Y12	Z12	X13	Y13	Z13	X14	Y14	Z14	X15	Y15	Z15	X16	Y16	Z16	X17	Y17	Z17	X18	Y18	Z18
9403	37.60800	394.66025	1417.74475	33.88920	479.73160	1353.38916	192.27582	410.13202	1367.26428	-166.95058	530.12720	1301.31921	-8.03160	497.79944	1142.32727	234.86586	527.97675	1045.67957	248.41031	478.62613	1021.03125	156.89096	512.82507	907.36597	232.05602	589.58746	833.74213	267.68256	570.48486	812.37091	196.80577	566.08191	761.61963	295.31909	385.30554	1159.36670	-235.45503	387.55008	1080.22253	-257.66629	336.07941	1043.48987	-179.00938	378.93259	934.23297	-268.38342	480.57339	872.00031	-254.90404	415.37698	843.16943	-267.46213	511.67761	799.37128	-286.65491
9404	37.61200	394.64481	1417.74536	33.91238	479.69846	1353.39429	192.30499	410.13025	1367.25806	-166.93518	530.09906	1301.29712	-8.00482	497.70856	1142.33081	234.92023	527.87054	1045.67786	248.46053	478.52386	1021.05151	156.94728	512.72351	907.36560	232.10497	589.47272	833.73029	267.73615	570.37140	812.37866	196.85666	565.95795	761.60724	295.35156	385.29398	1159.35645	-235.42545	387.54367	1080.20483	-257.62564	336.06226	1043.48657	-178.96411	378.91391	934.21564	-268.33295	480.54694	871.97906	-254.83907	415.36069	843.14728	-267.40805	511.66992	799.32629	-286.54819
9405	37.61600	394.62946	1417.74634	33.92492	479.66678	1353.40186	192.32990	410.13071	1367.25134	-166.91386	530.07458	1301.27441	-7.97878	497.61099	1142.33069	234.97052	527.77472	1045.67786	248.51550	478.48193	1021.04797	156.97472	512.61951	907.37915	232.15393	589.36993	833.72046	267.78287	570.25812	812.38513	196.90709	565.82965	761.60114	295.38901	385.28156	1159.34290	-235.39777	387.52939	1080.18542	-257.58340	336.04456	1043.48352	-178.92064	378.90305	934.20618	-268.28149	480.52979	871.96149	-254.76682	415.34406	843.12610	-267.34161	511.66171	799.29150	-286.45361
9406	37.62000	394.61557	1417.75098	33.94028	479.63605	1353.40930	192.35341	410.12540	1367.24097	-166.90279	530.04730	1301.25696	-7.96037	497.52390	1142.34241	235.00980	527.68805	1045.67395	248.57500	478.27661	1021.06976	157.09198	512.51361	907.39148	232.20348	589.26105	833.71857	267.82703	570.14679	812.38940	196.95239	565.70526	761.59778	295.42096	385.26978	1159.33154	-235.37117	387.51447	1080.15649	-257.53329	336.03046	1043.48328	-178.86716	378.88696	934.19379	-268.22577	480.51364	871.94446	-254.69637	415.33206	843.10620	-267.27563	511.65091	799.26801	-286.37631
9407	37.62400	394.60312	1417.75671	33.96213	479.60974	1353.41699	192.37766	410.12466	1367.22461	-166.88939	530.02228	1301.24097	-7.94077	497.43747	1142.35596	235.05122	527.59265	1045.66931	248.62305	478.12912	1021.08551	157.17740	512.40729	907.39618	232.25385	589.14410	833.71240	267.86652	570.03644	812.39520	196.99586	565.58630	761.58405	295.44943	385.26004	1159.31799	-235.34439	387.50162	1080.13245	-257.49268	336.01996	1043.47998	-178.82602	378.87335	934.17682	-268.16800	480.50269	871.92963	-254.62791	415.32172	843.08844	-267.21655	511.64209	799.25134	-286.29254
9408	37.62800	394.58423	1417.75684	33.98111	479.58090	1353.42749	192.40147	410.12125	1367.21094	-166.86826	529.99780	1301.22424	-7.90942	497.35297	1142.35181	235.09753	527.50073	1045.66565	248.66916	478.12579	1021.06226	157.18806	512.30499	907.39941	232.30278	589.03113	833.70697	267.91006	569.92999	812.40198	197.04309	565.46869	761.56842	295.48001	385.24948	1159.30688	-235.31541	387.49326	1080.11560	-257.45364	336.00128	1043.46594	-178.78777	378.86307	934.15796	-268.11481	480.48639	871.91284	-254.56560	415.31033	843.07330	-267.15408	511.63919	799.23376	-286.21277
9409	37.63200	394.56244	1417.75366	33.98582	479.54959	1353.43640	192.43146	410.11053	1367.20300	-166.84807	529.97369	1301.20630	-7.86837	497.27185	1142.35925	235.15144	527.40631	1045.66577	248.71794	478.10278	1021.04675	157.21730	512.20422	907.39917	232.35190	588.91193	833.70215	267.95770	569.83038	812.40369	197.08574	565.34668	761.54889	295.50601	385.24109	1159.30359	-235.28391	387.48505	1080.09863	-257.41019	335.98349	1043.45654	-178.74814	378.84753	934.14282	-268.05948	480.46780	871.89612	-254.49834	415.29996	843.05420	-267.08527	511.63232	799.21088	-286.13831
9410	37.63600	394.54642	1417.74768	34.00846	479.51968	1353.43884	192.45518	410.10397	1367.19495	-166.83142	529.95721	1301.18872	-7.81820	497.18747	1142.36096	235.19560	527.31598	1045.66284	248.77623	477.84061	1021.09503	157.34877	512.09747	907.39282	232.39809	588.78113	833.69263	268.00513	569.73206	812.40442	197.12720	565.21790	761.52979	295.53436	385.22900	1159.29565	-235.25008	387.47351	1080.07739	-257.36819	335.96497	1043.44080	-178.70688	378.83212	934.11957	-268.00342	480.44962	871.88312	-254.42549	415.28766	843.04132	-267.02298	511.62296	799.19086	-286.05426
9411	37.64000	394.53088	1417.74475	34.04431	479.49164	1353.44739	192.48810	410.09955	1367.18677	-166.81007	529.93915	1301.16443	-7.75823	497.11841	1142.36572	235.24916	527.22864	1045.66614	248.82715	477.60352	1021.12732	157.45831	511.99292	907.38800	232.44528	588.65869	833.68311	268.05231	569.63739	812.40765	197.16617	565.08759	761.51691	295.57257	385.21176	1159.28064	-235.20932	387.46375	1080.06128	-257.32294	335.94482	1043.42737	-178.65742	378.81470	934.10370	-267.93808	480.43716	871.86670	-254.34917	415.27740	843.02515	-266.95663	511.62659	799.16730	-285.95804
9412	37.64400	394.51044	1417.73938	34.07552	479.46109	1353.45972	192.52315	410.09586	1367.17896	-166.78862	529.91559	1301.14648	-7.70547	497.04495	1142.37183	235.28674	527.13367	1045.66528	248.87073	477.55243	1021.12805	157.48930	511.88922	907.38574	232.49693	588.54266	833.67798	268.10031	569.54517	812.41467	197.20500	564.95343	761.50409	295.60852	385.19733	1159.27429	-235.17561	387.45746	1080.05225	-257.27734	335.92081	1043.41626	-178.60727	378.79977	934.08575	-267.87259	480.42236	871.85114	-254.26949	415.26550	843.00958	-266.88907	511.62650	799.14508	-285.87585
9413	37.64800	394.48883	1417.73413	34.10139	479.42999	1353.46521	192.54813	410.08960	1367.17285	-166.77368	529.89453	1301.13208	-7.66107	496.97470	1142.37805	235.32391	527.04181	1045.66479	248.91931	477.50629	1021.12439	157.52933	511.78802	907.38202	232.54185	588.42871	833.67413	268.14716	569.45477	812.41534	197.24593	564.80939	761.49823	295.63754	385.19107	1159.27368	-235.14592	387.45392	1080.03955	-257.23834	335.89700	1043.41223	-178.55490	378.78757	934.07599	-267.81015	480.41153	871.83344	-254.19319	415.25632	842.99921	-266.81131	511.62332	799.12354	-285.79138
9414	37.65200	394.47092	1417.72754	34.13305	479.40390	1353.47131	192.58191	410.08746	1367.16833	-166.75517	529.87103	1301.12280	-7.61210	496.91916	1142.37500	235.36258	526.96179	1045.66235	248.96071	477.52490	1021.09241	157.51872	511.68912	907.38025	232.58041	588.31866	833.67114	268.19504	569.36700	812.41516	197.28508	564.65936	761.49530	295.68390	385.18341	1159.27075	-235.11362	387.45096	1080.02356	-257.17963	335.87711	1043.40454	-178.51720	378.78378	934.06390	-267.74899	480.40524	871.82379	-254.12038	415.24957	842.98071	-266.72849	511.63046	799.11206	-285.69101
9415	37.65600	394.45523	1417.72852	34.16348	479.38074	1353.48584	192.61893	410.08978	1367.16479	-166.72919	529.84772	1301.10767	-7.56794	496.87622	1142.38391	235.39970	526.88403	1045.66284	248.99557	477.47522	1021.10040	157.53894	511.59351	907.38617	232.61455	588.20648	833.67017	268.24576	569.27594	812.41284	197.32750	564.50989	761.48926	295.73022	385.18039	1159.26099	-235.08089	387.44226	1080.01282	-257.12991	335.85565	1043.40173	-178.47203	378.77798	934.05365	-267.68549	480.40265	871.81592	-254.04581	415.24738	842.95844	-266.65277	511.63058	799.10803	-285.60825
9416	37.66000	394.43784	1417.73352	34.18941	479.35760	1353.49695	192.65430	410.08862	1367.15845	-166.71065	529.82581	1301.09888	-7.53812	496.83502	1142.40039	235.43047	526.80579	1045.66504	249.03326	477.41275	1021.09430	157.56169	511.49481	907.39325	232.64542	588.09778	833.66351	268.29449	569.18488	812.41138	197.36749	564.36237	761.47687	295.76859	385.17816	1159.24829	-235.04770	387.43811	1080.00171	-257.09052	335.82800	1043.40125	-178.42168	378.77313	934.03821	-267.62009	480.40521	871.80530	-253.97397	415.24716	842.94312	-266.57974	511.62863	799.10107	-285.53259
